<?xml version="1.0" encoding="UTF-8"?>
<svg xmlns="http://www.w3.org/2000/svg" width="16" height="26" viewBox="0 0 16 26" fill="none">
  <path d="M8.02761 4.26568C9.13017 4.26568 10.024 3.37187 10.024 2.26931C10.024 1.16675 9.13017 0.272949 8.02761 0.272949C6.92505 0.272949 6.03125 1.16675 6.03125 2.26931C6.03125 3.37187 6.92505 4.26568 8.02761 4.26568Z" fill="#0E0E0E"></path>
  <path d="M6.21153 6.91214L4.05469 5.89307L0.632427 13.1362L2.78927 14.1553L6.21153 6.91214Z" fill="#0E0E0E"></path>
  <path d="M12.2183 5.86982L10.0234 6.8042L13.1613 14.175L15.3561 13.2406L12.2183 5.86982Z" fill="#0E0E0E"></path>
  <path d="M7.40887 14.8984H5.02344V25.0948H7.40887V14.8984Z" fill="#0E0E0E"></path>
  <path d="M11.0261 14.8984H8.64062V25.0948H11.0261V14.8984Z" fill="#0E0E0E"></path>
</svg>
